<?xml version="1.0" standalone="no"?><!DOCTYPE svg PUBLIC "-//W3C//DTD SVG 1.1//EN" "http://www.w3.org/Graphics/SVG/1.1/DTD/svg11.dtd"><svg t="1665133978555" class="icon" viewBox="0 0 1024 1024" version="1.1" xmlns="http://www.w3.org/2000/svg" p-id="1976" xmlns:xlink="http://www.w3.org/1999/xlink" width="200" height="200"><path d="M492.3392 81.92c-158.35136 0-286.72 128.36864-286.72 286.72v160.17408C144.32256 560.4864 102.4 624.47616 102.4 698.24512v23.41888c0 96.13312 71.59808 177.21344 166.99392 189.11232L520.2944 942.08l249.57952-31.232c95.35488-11.93984 166.912-93.00992 166.912-189.12256v-23.48032c0-66.64192-34.2016-125.29664-86.016-159.36512V368.64c0-158.35136-128.36864-286.72-286.72-286.72H492.3392z" fill="#F9E9E7" p-id="1977"></path><path d="M781.74208 502.0672c30.88384 0 30.88384-112.9472 0-112.9472-30.8736 0-55.9104 25.2928-55.9104 56.4736 0 31.19104 25.0368 56.4736 55.9104 56.4736z m-523.0592 0c-30.88384 0-30.88384-112.9472 0-112.9472 30.8736 0 55.9104 25.2928 55.9104 56.4736 0 31.19104-25.0368 56.4736-55.9104 56.4736z" fill="#24201D" p-id="1978"></path><path d="M368.64 573.44m82.54464 0l135.97696 0q82.54464 0 82.54464 82.54464l0-0.01024q0 82.54464-82.54464 82.54464l-135.97696 0q-82.54464 0-82.54464-82.54464l0 0.01024q0-82.54464 82.54464-82.54464Z" fill="#E7AAA0" p-id="1979"></path><path d="M450.3552 677.70368c11.8784 0 21.504-9.728 21.504-21.71904a21.6064 21.6064 0 0 0-21.504-21.72928c-11.8784 0-21.504 9.728-21.504 21.72928a21.6064 21.6064 0 0 0 21.504 21.7088z m146.2272 0c11.8784 0 21.51424-9.728 21.51424-21.71904a21.6064 21.6064 0 0 0-21.504-21.72928c-11.8784 0-21.504 9.728-21.504 21.72928a21.6064 21.6064 0 0 0 21.504 21.7088z" fill="#C5575C" p-id="1980"></path><path d="M592.76288 762.70592a17.08032 17.08032 0 0 1 24.33024 0.29696 17.5104 17.5104 0 0 1-0.29696 24.576c-65.26976 64.32768-132.27008 64.32768-192.31744-0.57344a17.50016 17.50016 0 0 1 0.8192-24.56576 17.08032 17.08032 0 0 1 24.32 0.82944c46.62272 50.40128 91.4432 50.40128 143.1552-0.5632z" fill="#E7969A" p-id="1981"></path><path d="M711.65952 134.4512c130.57024-42.73152 227.82976-42.73152 291.76832 0 2.82624 1.792-63.01696 46.6944-63.01696 96.64512-27.12576 66.80576-63.93856 100.23936-110.44864 100.31104 1.32096 0.24576-38.11328-65.40288-118.30272-196.95616z" fill="#F9E9E7" p-id="1982"></path><path d="M736.43008 184.55552c110.88896-54.77376 199.8848-71.4752 266.99776-50.10432 2.82624 1.792-63.01696 46.6944-63.01696 96.64512-27.12576 66.80576-63.93856 100.23936-110.44864 100.31104 1.32096 0.24576-29.85984-48.70144-93.53216-146.85184z" fill="#D8AAA2" p-id="1983"></path><path d="M322.58048 134.4512c-130.57024-42.73152-227.82976-42.73152-291.76832 0-2.82624 1.792 63.01696 46.6944 63.01696 96.64512 27.12576 66.80576 63.93856 100.23936 110.44864 100.31104-1.32096 0.24576 38.11328-65.40288 118.30272-196.95616z" fill="#F9E9E7" p-id="1984"></path><path d="M297.80992 184.55552c-110.88896-54.77376-199.8848-71.4752-266.99776-50.10432-2.82624 1.792 63.01696 46.6944 63.01696 96.64512 27.12576 66.80576 63.93856 100.23936 110.44864 100.31104-1.32096 0.24576 29.85984-48.70144 93.53216-146.85184z" fill="#D8AAA2" p-id="1985"></path><path d="M762.88 624.64c53.72928 0 97.28-18.3296 97.28-40.96s-43.55072-40.96-97.28-40.96-97.28 18.3296-97.28 40.96 43.55072 40.96 97.28 40.96z m-481.28 0c53.72928 0 97.28-18.3296 97.28-40.96s-43.55072-40.96-97.28-40.96-97.28 18.3296-97.28 40.96 43.55072 40.96 97.28 40.96z" fill="#D36F3E" fill-opacity=".3" p-id="1986"></path></svg>